<?xml version="1.0" encoding="UTF-8" standalone="no"?>
<!-- Created with Inkscape (http://www.inkscape.org/) -->

<svg
   width="499.00003"
   height="126.99999"
   viewBox="0 0 132.02708 33.602081"
   version="1.1"
   id="svg1"
   xmlns:xlink="http://www.w3.org/1999/xlink"
   xmlns="http://www.w3.org/2000/svg"
   xmlns:svg="http://www.w3.org/2000/svg">
  <defs
     id="defs1">
    <linearGradient
       id="linearGradient52">
      <stop
         style="stop-color:#aa0000;stop-opacity:1;"
         offset="0"
         id="stop52" />
      <stop
         style="stop-color:#ff0000;stop-opacity:1;"
         offset="0.2"
         id="stop54" />
      <stop
         style="stop-color:#aa0000;stop-opacity:1;"
         offset="0.40000001"
         id="stop53" />
      <stop
         style="stop-color:#aa0000;stop-opacity:1;"
         offset="0.69999999"
         id="stop55" />
      <stop
         style="stop-color:#ff0000;stop-opacity:1;"
         offset="0.75"
         id="stop56" />
      <stop
         style="stop-color:#aa0000;stop-opacity:1;"
         offset="0.80000001"
         id="stop57" />
    </linearGradient>
    <linearGradient
       xlink:href="#linearGradient52"
       id="linearGradient53"
       x1="6.614583"
       y1="60.223"
       x2="133.07263"
       y2="-23.350817"
       gradientUnits="userSpaceOnUse" />
  </defs>
  <g
     id="layer1"
     transform="translate(-0.13229165,-0.13229202)">
    <g
       id="g12"
       style="display:none">
      <path
         style="fill:none;stroke:#b0453a;stroke-width:1.05833;stroke-linecap:butt;stroke-linejoin:miter;stroke-dasharray:none"
         d="M 0.52916666,11.1125 V 9.2604162 L 9.2604164,0.529167 l 33.6020826,7e-7 2.116667,1.587499 h 14.39333"
         id="path8" />
      <path
         style="fill:none;stroke:#b0453a;stroke-width:0.661458;stroke-linecap:butt;stroke-linejoin:miter;stroke-dasharray:none"
         d="M 2.1166667,11.1125 V 9.8891487 l 7.7724822,-7.7724817 32.9733501,-3e-7 2.116667,-1.587499 h 21.166665"
         id="path9" />
      <g
         id="g11"
         style="display:inline;fill:#320000;fill-opacity:0.0588235;stroke-width:0.79375;stroke-dasharray:none">
        <path
           style="display:inline;fill:none;fill-opacity:0.0588235;stroke:#b0453a;stroke-width:1.05833;stroke-linecap:square;stroke-linejoin:miter;stroke-dasharray:none"
           d="M 0.52916666,0.529167 H 6.7340609 L 4.7711303,2.4512381 M 2.4268391,4.7467316 0.52916666,6.6049029 V 0.529167"
           id="path10" />
        <path
           style="fill:none;fill-opacity:0.0588235;stroke:#b0453a;stroke-width:0.79375;stroke-linecap:butt;stroke-linejoin:miter;stroke-dasharray:none"
           d="M 6.0029078,6.0029078 0.52916666,0.529167"
           id="path11" />
      </g>
    </g>
    <path
       style="display:none;fill:none;stroke:#b0453a;stroke-width:0.79375;stroke-linecap:butt;stroke-linejoin:miter;stroke-dasharray:none;stroke-opacity:1"
       d="m 51.329164,0.5291677 4.766765,4.2333318 h 6.098789"
       id="path36" />
    <path
       style="display:none;fill:none;stroke:#b0453a;stroke-width:0.79375;stroke-linecap:butt;stroke-linejoin:miter;stroke-dasharray:none;stroke-opacity:1"
       d="M 57.679164,0.5291677 66.14583,8.4666665"
       id="path37" />
    <path
       id="path52"
       style="fill:none;stroke:url(#linearGradient53);stroke-width:0.79375;stroke-linecap:butt;stroke-linejoin:miter;stroke-dasharray:none;stroke-opacity:1"
       d="m 80.962498,33.337495 -4.766765,-4.233332 h -6.098789 m 2.822222,2.645833 h 14.39333 l 2.116667,1.587499 33.602087,1e-6 8.73125,-8.731248 V 9.2604159 l -8.73125,-8.7312489 -33.602087,7e-7 -2.116667,1.5874992 h -14.39333 m 53.369584,25.7470881 5.47375,5.473741 m -3.66696,-2.414617 -2.41846,2.414616 h 6.08542 V 27.26176 l -2.41952,2.415666 m -71.663816,3.660069 8.466668,-7.937498 8.466666,7.937498 m -23.283334,0 4.766765,-4.233331 h 6.098789 m -2.822222,2.645832 h -14.39333 l -2.116667,1.587499 -33.6020826,1e-6 -8.73124974,-8.731249 V 9.2604162 L 9.2604164,0.529167 l 33.6020826,7e-7 2.116667,1.587499 h 14.39333 M 6.0029078,27.863755 0.52916666,33.337496 M 4.1961187,30.922879 6.6145831,33.337495 H 0.52916665 V 27.261761 L 2.9486811,29.677426 M 80.962498,0.5291677 76.195733,4.7624999 H 70.096944 M 130.175,9.8891489 122.40251,2.1166669 H 89.429163 L 87.312496,0.5291677 h -42.33333 l -2.116667,1.587499 -32.9733501,3e-7 -7.7724822,7.7724817 V 23.977515 l 7.7724822,7.772481 H 42.862499 l 2.116667,1.587499 h 42.33333 l 2.116667,-1.587499 h 32.973347 l 7.77249,-7.772481 z m -3.88625,-3.886241 5.47375,-5.4737409 m -3.66696,2.4146169 -2.41846,-2.4146162 h 6.08542 v 6.0757352 l -2.41952,-2.415666 M 57.679164,0.5291677 66.145832,8.4666668 74.612498,0.5291677 m -23.283334,0 4.766765,4.2333318 h 6.098789 M 6.0029078,6.0029078 0.52916666,0.529167 M 4.1961187,2.9437844 6.6145831,0.5291677 H 0.52916665 V 6.6049025 L 2.9486811,4.1892373" />
  </g>
</svg>
