<svg xmlns="http://www.w3.org/2000/svg" width="800" height="800">
<path d="m129 79c-30 3-57 24-66 53-5 16-7 32-5 49 6 47 32 84 70 113 11 9 24 15 37 20 1-0 2 2 2 3s0 3-2 3c-13 5-26 11-37 20-38 29-64 66-70 113-5 37 9 70 34 98 19 21 39 42 67 51-10 12-23 22-41 26-18 5-34-1-45-16-7-9-3-24 8-31 3-2 9-3 8-9-1-5-6-8-10-9-24-8-55 14-57 39-4 41 33 69 72 59 6-2 12-3 21-5-14 21-32 26-52 27-7 0-14 1-20 2-17 4-25 19-20 36 3 9 8 16 8 26 0 9-3 15-7 22-1 2-3 5-1 8 0 0 0 0 0 0s0 0 0 0c3 3 5 1 8-1 7-4 14-7 22-7 10-0 18 5 26 8 17 5 32-3 36-20 2-7 2-13 2-20 1-21 6-39 27-52-2 9-4 15-5 21-10 40 18 76 59 72 25-2 47-33 39-57-2-5-4-9-9-10-6-2-7 4-9 8-7 11-22 14-31 8-15-11-21-26-16-45 5-18 14-32 27-41 9 29 30 50 52 70 28 25 62 39 98 34 47-6 84-32 113-70 9-11 15-24 20-37-0-1 2-2 3-2s3-0 3 2c5 13 11 26 20 37 29 38 66 64 113 70 17 2 34-0 49-5 29-10 50-36 53-66-0-12 2-21-2-30-7-17-38-26-49-9-3 5-6 10-4 16s8 4 12 4c10-0 13 6 11 15-3 14-9 26-22 35-23 14-45 18-70 7-28-13-55-26-71-54s-22-57-4-87c9-16 25-23 43-20 11 2 19 15 17 27-1 4-5 9 1 12 5 3 9 1 14-1 22-12 29-49 13-68-26-31-72-26-93 9-3 5-6 11-11 18-5-24 4-41 18-56 5-5 9-10 13-16 9-15 4-31-12-39-8-4-17-6-24-13-6-6-9-13-11-21-1-3-1-6-5-6h-1s0 0-1 0c-4 0-4 3-5 6-2 8-5 15-11 21-7 7-16 9-24 13-15 8-21 25-12 39 4 6 8 11 13 16 14 15 23 32 18 56-5-8-8-13-11-18-21-35-67-41-93-9-16 19-10 57 13 68 5 2 9 3 14 1 6-3 2-8 1-12-2-13 6-26 17-27 18-3 33 4 43 20 18 30 12 59-4 87s-43 42-71 54c-26 12-48 7-70-7-13-8-18-21-22-35-2-8 1-14 11-15 4-0 10 2 12-4s-1-11-4-16c-11-17-42-8-49 9-4 9-2 17-2 30-6-9-11-14-14-20-8-15-12-31-14-48-0-3-0-6-0-9-2-10-8-13-17-14-18-2-36-5-53-14-6-3-12-8-20-14 12-0 21 2 30-2 17-7 26-38 9-49-5-3-10-6-16-4s-4 8-4 12c0 10-6 13-15 11-14-3-26-9-35-22-14-23-18-45-7-70 13-28 26-55 54-71s57-22 87-4c16 9 23 25 20 43-2 11-15 19-27 17-4-1-9-5-12 1-3 5-1 9 1 14 12 22 49 29 68 13 31-26 26-72-9-93-5-3-11-6-18-11 24-5 41 4 56 18 5 5 10 9 16 13 15 9 31 4 39-12 4-8 6-17 13-24 6-6 13-9 21-11 3-1 6-1 6-5v-1s0 0-0-1c-0-4-3-4-6-5-8-2-15-5-21-11-7-7-9-16-13-24-8-15-25-21-39-12-6 4-11 8-16 13-15 14-32 23-56 18 8-5 13-8 18-11 35-21 41-67 9-93-19-16-57-10-68 13-2 5-3 9-1 14 3 6 8 2 12 1 13-2 26 6 27 17 3 18-4 33-20 43-30 18-59 12-87-4s-42-43-54-71c-12-26-7-48 7-70 8-13 21-18 35-22 8-2 14 1 15 11 0 4-2 10 4 12s11-1 16-4c17-11 8-42-9-49-9-4-18-4-31-4zm70 562c-0-1-0-1-1-2 0 1 1 1 1 2zm-1-2s-1-1-1-1 1 1 1 1zm-33-34s-1-1-1-1c1-0 1 1 1 1zM503 708c-4-6-8-12-11-19-2-4-4-7-7-7s-5 3-7 7c-3 7-6 13-11 19-21 28-48 48-82 58-3 1-8 2-7 6s5 3 8 3c24-0 48-0 72-0h26 26c24-0 48-0 72-0 3-0 8 1 8-3 1-5-4-5-7-6-34-10-60-30-80-58zM32 417c10-34 30-61 58-82 6-4 12-8 19-11 4-2 7-4 7-7s-3-5-7-7c-7-3-13-6-19-11-28-21-48-48-58-82-1-3-2-8-6-7s-3 5-3 8c0 24 0 48 0 72v26 26c0 24 0 48 0 72 0 3-1 8 3 8 4 1 5-3 6-7z" fill="#000"/>
</svg>