<?xml version="1.0" encoding="UTF-8"?>
<svg width="1200pt" height="1200pt" version="1.1" viewBox="0 0 1200 1200" xmlns="http://www.w3.org/2000/svg">
 <path d="m225.23 1182.5c-2.4375 0.34766-5.0039-0.43359-6.8555-2.3359-3.0703-3.1602-3.0039-8.2109 0.15625-11.281 22.711-22.109 46.73-48.23 71.672-75.352 25.938-28.203 52.859-57.48 80.629-84.762-12.211-4.9922-24.332-9.1797-36.617-10.676-0.48828-0.058593-0.97266-0.11719-1.457-0.16797-33.469 0.027344-49.516 22.734-52.289 26.66-0.070313 0.097656-0.14062 0.19531-0.21094 0.28906-3.8867 5.4922-3.4375 11.73-2.9336 18.73 0.5625 7.8008 1.1758 16.309-2.2109 26.875-2.5703 8.0195-7.543 14.242-13.719 17.949-6.4766 3.8867-14.18 4.9883-21.848 2.5469-2.957-0.94141-5.5508-2.2188-7.7656-3.7734-4.2969-3.0117-7.1758-6.9961-8.582-11.613-1.3516-4.4531-1.2656-9.3398 0.32813-14.34 0.98828-3.1016 2.5547-6.2422 4.7109-9.3164 5.1797-7.3906 15.191-16.141 24.723-24.473 8.2969-7.25 16.195-14.16 18.77-18.207 0.76953-1.2109 1.8086-2.1445 2.9883-2.7734 1.0625-1.1133 2.2344-2.2812 3.5195-3.4727-1.7617 0.46484-3.5117 0.94531-5.2539 1.4453-0.15625 0.050781-0.31641 0.097656-0.47656 0.14062l-0.15625 0.039063c-7.7305 2.2266-15.281 4.7344-22.73 7.2109-22.289 7.4102-43.738 14.539-67.266 13.855-2.8906-0.085937-5.7812-0.15625-8.6055-0.21094l-1.4766-0.027344c-0.30078 0.015625-0.60938 0.011719-0.91797-0.007812l-0.16406-0.007813-0.61719-0.007813c-4.3867 0.058594-13.363 2.5117-22.758 5.082-11.723 3.207-24.031 6.5703-32.438 6.4688-3.5898-0.042969-6.8281-0.65625-9.6523-1.7617-4.3359-1.6953-7.7422-4.4844-10.078-8.1562-2.2344-3.5195-3.3906-7.7617-3.332-12.523 0.046875-3.7656 0.85938-7.8203 2.5078-12.035l0.17969-0.46875c3.1055-7.6133 8.4336-13.266 14.793-16.371 6.6016-3.2227 14.215-3.6953 21.602-0.80469 0.37891 0.14844 0.21484 0.078125 0.37109 0.14453 9.5859 3.9062 15.008 10.105 19.984 15.785 3.9883 4.5586 7.5469 8.625 12.711 8.6484l2.1836 0.015625c1.1758 0.011719 2.3242 0.023438 3.4492 0.039062 0.82031-0.027343 1.5938-0.019531 2.3164 0.027344l0.10938 0.007813 1.4727 0.027343c3.207 0.058594 6.1094 0.13281 8.793 0.21094 12.777 0.375 25.312-2.0156 37.938-5.5273-19.496-4.2969-36.137-12.242-42.203-18.129-1.25-1.2148-2.375-2.5391-3.3672-3.9531-3.6133-5.1523-4.9688-10.973-4.1406-16.844 0.78125-5.5508 3.5234-11.004 8.1484-15.773 1.6406-1.6914 3.5625-3.3242 5.7656-4.8672 1.9336-1.3555 3.8789-2.4492 5.8086-3.2891 5.5352-2.4102 11.137-2.9219 16.258-1.6602 5.2969 1.3047 9.9375 4.457 13.348 9.3281 1.043 1.4883 1.9492 3.0977 2.7031 4.8281 4.6172 10.598 3.0391 18.457 1.6602 25.32-0.78125 3.8867-1.4375 7.1562 1.125 9.6055 0.089844 0.085938 0.17578 0.17188 0.26172 0.25781 0.49219 0.10156 0.98828 0.19922 1.4883 0.29297 13.328 2.543 27.973 3.1992 40.863-0.19531l0.14844-0.039062c20.527-5.9023 42.43-9.9414 67.492-6.8906 16.359 1.9922 31.742 7.9102 47.215 14.496 10.723-10.188 21.566-20.012 32.52-29.309-1.0781 0.097656-2.1602 0.1875-3.2344 0.26172-19.078 1.3125-38.055-1.4531-50.996-4.3516-0.6875-0.019531-1.3828-0.13281-2.0742-0.33984-3.4883-1.0625-9.9258-2.457-17.137-4.0195-15.117-3.2734-33.492-7.25-42.402-12.539-1.9766-1.1719-3.7266-2.5312-5.2383-4.0391-4.0312-4.0156-6.2539-8.9453-6.625-14.32-0.34766-5.0273 0.97266-10.309 4-15.406 1.5312-2.582 3.5234-5.1328 5.9727-7.5938 1.2773-1.2812 2.6094-2.4336 3.9844-3.4492 5.3086-3.9375 11.176-5.832 16.875-5.6914 5.9883 0.14844 11.637 2.4922 16.184 7.0234 0.9375 0.93359 1.8281 1.9648 2.6641 3.0898 6.1211 8.2539 7.7852 16.629 9.3125 24.312 1.2578 6.3398 2.3828 11.988 6.4375 14.355 0.32813 0.19141 0.92969 0.44531 1.7695 0.74609 3.3516 0.77344 6.3477 1.5234 8.8359 2.2812 0.33203 0.10156 0.65625 0.22266 0.96484 0.35938 10.988 2.4219 28.324 4.8906 46.418 3.6445 13.746-0.94531 27.637-4.1484 38.82-11.398 1.1953-0.85547 2.3945-1.7031 3.5938-2.543l0.035156-0.027344c0.20313-0.15625 0.41406-0.30469 0.62891-0.4375 30.969-21.621 62.734-37.668 95.133-44.508 51.832-10.941 92.137 9.0547 130.22 27.949 20.012 9.9297 39.375 19.535 58.816 23.555 10 2.0664 27.934 3.3867 49.148 3.2773 10.672-5.5117 20.957-11.262 31.195-16.988 25.066-14.02 49.863-27.887 79.516-38.039 12.211-4.1797 21.07-2.6406 26.836 2.0117 3.375 2.7227 5.5312 6.3438 6.5859 10.469 0.91797 3.5938 0.96094 7.6016 0.21484 11.684-2.0039 10.953-10.16 22.969-22.48 28.043-22.348 9.2031-51.824 14.434-80.551 16.93-12.797 1.1133-25.504 1.6797-37.402 1.8203-17.84 9.0742-36.852 17.461-58.586 24.043-22.305 6.7578-42.977 10.531-64.953 12.734-4.9219 0.49219-9.9062 0.90625-14.988 1.2539-0.14453 0.019531-0.29297 0.03125-0.44141 0.042968-9.3125 0.65234-16.934 3.1172-22.977 6.1914-9.207 4.6875-14.531 10.582-16.562 13.551-3.8281 5.5938-3.2539 11.789-2.6094 18.738 0.72266 7.8086 1.5117 16.324-1.6484 26.836-2.4258 8.0664-7.293 14.387-13.418 18.211-6.4062 4-14.094 5.2578-21.82 2.9883-3.0508-0.89453-5.7148-2.1406-7.9844-3.6719-4.3008-2.9062-7.2305-6.8047-8.7227-11.363-1.4336-4.3789-1.4492-9.2266 0.019531-14.223 0.93359-3.1719 2.4531-6.3789 4.5742-9.5195 4.9727-7.3594 14.887-16.34 24.332-24.891 8.1797-7.4062 15.969-14.461 18.465-18.539 0.65625-1.0742 1.5273-1.9414 2.5234-2.5742-2.9727 0.058594-5.9961 0.11328-9.0703 0.16406l-0.078125 0.003906c-0.79297 0.03125-1.5781 0.042969-2.3594 0.039062-14.305 0.28125-25.84 1.2188-35.738 2.8945-11.352 3.2812-18.758 8.2969-23.637 13.191-4.8594 4.875-7.25 9.7188-8.4922 12.469-2.6719 5.918-0.90625 11.578 1.0781 17.926 2.2812 7.3047 4.7695 15.273 3.6367 26.117-0.86328 8.2344-4.5352 15.289-9.9609 20.203-5.5781 5.0469-12.914 7.8008-20.922 7.2695-3.6875-0.24219-7.0156-1.0586-9.9375-2.3555-4.4023-1.9531-7.7578-4.9453-9.9609-8.7305-2.1602-3.7188-3.1406-8.0664-2.8242-12.805 0.23047-3.4648 1.1719-7.168 2.8711-11 3.6758-8.2773 11.836-18.777 19.609-28.777 4.2305-5.4414 8.3359-10.727 11.238-14.965-5.9453 3.6562-12.223 7.8281-19.32 12.543-4.2305 2.8125-8.6992 5.7812-11.637 7.707-2.0977 1.375-4.6719 3.0469-7.9883 5.1797l-1.6016 1.0234c-0.58594 0.41016-1.2227 0.8125-1.9102 1.2109-1.4102 0.89062-3.1328 1.9727-5.2109 3.2773-5.6758 3.5586-8.0469 9.9414-10.703 17.098-2.8477 7.6719-5.9531 16.043-13.234 24.582-0.96875 1.1367-2.0469 2.2461-3.2266 3.3242-5.125 4.6953-11.027 7.3516-16.902 7.8711-6.2734 0.55859-12.375-1.2773-17.445-5.6016-0.73047-0.62109-1.4961-1.3711-2.2969-2.2461-1.3047-1.4219-2.3789-2.8086-3.2305-4.1523-3.5352-5.5625-4.7031-11.637-3.6797-17.566 0.98828-5.7109 4.0312-11.137 8.9648-15.656 1.6094-1.4727 3.3125-2.793 5.1055-3.9297 7.4727-4.7461 19.684-8.6641 31.316-12.391 9.2148-2.9531 18.023-5.7773 22.328-8.2891l1.1289-0.72266c0.10938-0.074219 0.22266-0.14453 0.33203-0.21484l1.6406-1.0547c1.1953-0.76953 2.5391-1.6406 3.9922-2.5859-25.086 2.5312-47.219-4.3789-68.371-13-9.125 15.289-16.43 30.336-23.18 44.246-3.5352 7.2852-6.9219 14.262-10.672 21.426-13.203 25.242-34.934 46.297-58.496 62.152-28.77 19.363-60.602 31.117-82.969 33.289zm867.18-1069.1c2.4336-3.6758 7.3867-4.6836 11.062-2.25 2.2188 1.4688 3.4688 3.8594 3.5703 6.332 2.0391 22.371-3.5664 55.824-17.219 87.691-11.18 26.094-27.812 51.371-50.156 69.062-6.2461 4.9453-12.512 9.6055-19.059 14.473-12.41 9.2305-25.832 19.215-39.148 31.031 12.426 19.184 23.348 39.652 25.523 64.805 0.55859-1.3672 1.1562-2.8398 1.8047-4.4453l0.68359-1.6992c0.070313-0.19531 0.14844-0.39453 0.23438-0.58594l0.44141-1.1094c1.6523-4.6602 2.7852-13.871 3.9727-23.508 1.4805-12.039 3.0391-24.684 6.375-33.078 0.82812-2.0859 1.7969-4.0117 2.875-5.7578 3.5078-5.668 8.2773-9.6641 13.723-11.707 5.625-2.1094 11.805-2.0938 17.93 0.34375 1.5898 0.63281 3.1602 1.4219 4.6953 2.3672 0.98047 0.60547 1.8594 1.2227 2.6445 1.8555 5.1953 4.1758 8.1367 9.832 8.7578 16.109 0.58203 5.8516-0.92578 12.137-4.5859 18.055-0.82031 1.3281-1.7148 2.5977-2.6797 3.7969-7.0078 8.7188-14.66 13.336-21.68 17.57-6.5117 3.9297-12.32 7.4336-14.777 13.73-0.72266 1.8555-1.4961 3.8008-2.3008 5.8203-0.26172 0.72656-0.53516 1.4141-0.82422 2.0508l-0.67969 1.6875c-1.0742 2.6602-2.3008 5.6523-3.6094 8.8086-1.6133 3.9023-3.5625 8.5195-5.4062 12.895-3.3125 7.8633-6.2422 14.812-8.7266 21.348 3.625-3.6484 8.0586-8.6797 12.629-13.863 8.3984-9.5273 17.215-19.527 24.605-24.648 3.4102-2.3594 6.8711-3.9688 10.258-4.8477 4.6289-1.1992 9.0938-1.0586 13.145 0.37109 4.1328 1.457 7.6953 4.1914 10.434 8.1445 1.7969 2.5938 3.207 5.707 4.1406 9.3086 2.0234 7.8047 0.69922 15.535-3.2109 21.941-3.8125 6.2461-10.062 11.172-18 13.559-10.426 3.1328-18.723 2.1758-26.332 1.293-6.6133-0.76562-12.508-1.4453-17.809 2.2734-2.4648 1.7305-6.7773 4.9844-10.664 10.672-3.9023 5.7109-7.4492 13.938-8.5469 25.727 0.20703 10.02 1.4375 21.508 3.8242 35.582 0.15234 0.78516 0.28906 1.582 0.41406 2.3867l0.015625 0.10547c0.51953 3.0117 1.0273 5.9727 1.5234 8.8828 0.4375-1.0898 1.1211-2.1016 2.0508-2.9414 3.4609-3.1367 8.9648-12.152 14.746-21.617 6.6094-10.824 13.551-22.188 19.93-28.523 2.6953-2.6758 5.5664-4.7734 8.5117-6.2812 4.625-2.3711 9.3789-3.2539 13.945-2.6641 4.7578 0.61328 9.1328 2.7617 12.781 6.4375 1.9336 1.9453 3.6562 4.3398 5.1055 7.1719 3.668 7.1602 3.8672 14.941 1.1328 21.977-2.6211 6.7422-7.9102 12.711-15.359 16.582-9.7461 5.0703-18.277 5.8867-26.098 6.6328-6.9414 0.66406-13.129 1.2539-17.891 6.043-2.5508 2.5625-7.3672 8.9102-10.246 18.801-1.8516 6.3633-2.8398 14.152-1.8242 23.289 0.65234 5.375 1.2148 10.652 1.6758 15.875 1.9219 21.859 2.0586 42.848-0.43359 66.164-2.418 22.617-7.1094 42.863-12.688 62.078 2.082 11.707 3.8867 24.297 5.1836 37.078 2.9102 28.715 3.2773 58.645-1.582 82.258-2.6875 13.059-12.973 23.316-23.359 27.328-3.8555 1.4883-7.8047 2.1914-11.531 1.957-4.2539-0.26953-8.2031-1.6992-11.48-4.4844-5.6602-4.8086-8.832-13.238-7-26.031 4.4375-31.012 13.441-57.973 22.539-85.223 3.7188-11.133 7.4492-22.312 10.875-33.824-3.8516-20.824-8.4961-38.184-12.398-47.633-7.5664-18.332-20.625-35.574-34.121-53.391-25.664-33.879-52.82-69.734-51.742-122.74 0.67188-32.996 10.449-67.082 25.828-101.43 0.12109-0.34766 0.26562-0.69531 0.4375-1.0312l0.28906-0.57812c0.44141-0.98047 0.88672-1.957 1.3398-2.9375 5.2383-12.465 5.8359-26.93 4.1758-40.805-2.1445-17.957-7.7773-34.477-12.195-44.82-0.21094-0.29297-0.40234-0.60156-0.57422-0.92969-1.1172-2.1289-2.4102-4.9453-3.832-8.1953-0.47266-0.81641-0.85156-1.3867-1.1094-1.6836-3.0977-3.5664-8.8672-3.6172-15.332-3.6719-7.8477-0.066406-16.41-0.13672-25.598-4.582-1.2656-0.61328-2.4453-1.293-3.5273-2.0352-5.3164-3.6328-8.6797-8.7539-9.9453-14.617-1.1992-5.5547-0.42578-11.664 2.4531-17.621 0.74609-1.543 1.625-3.0664 2.6406-4.5508 1.9297-2.8242 4.0703-5.2461 6.3516-7.2617 4.4727-3.9492 9.4219-6.2461 14.422-6.8398 5.332-0.63672 10.578 0.62891 15.27 3.8359 1.7266 1.1797 3.375 2.6445 4.9258 4.3984 6.8555 7.7617 14.199 25.09 20.242 39.344 2.7812 6.5664 5.2656 12.426 7.1641 16.043 0.35547 0.67188 0.60156 1.375 0.75391 2.0859 5.2617 12.18 11.504 30.277 13.77 49.227 0.12891 1.0625 0.24219 2.1328 0.34375 3.2031 7.0898-12.496 14.719-24.98 22.723-37.414-9.3359-13.938-17.996-27.922-23.027-43.684-0.11719-0.36719-0.23047-0.73828-0.34375-1.1055-0.16797-0.41797-0.30078-0.85547-0.39844-1.3086-6.9648-23.219-7.0117-44.738-5.1055-65.297v-0.011719c0.92969-13.297-2.4453-27.559-7.4297-40.176-0.19141-0.48828-0.38672-0.97266-0.58594-1.457-0.082031-0.054688-0.16797-0.10938-0.25-0.16797-2.8867-2.0664-5.9883-0.80469-9.668 0.69141-6.4688 2.6289-13.875 5.6406-25.176 3.0742-1.9219-0.4375-3.6836-1.0234-5.2812-1.7422-5.3906-2.4297-9.3477-6.4062-11.629-11.395-2.1953-4.8008-2.7422-10.391-1.4102-16.258 0.48437-2.1328 1.1914-4.2578 2.1367-6.3555 1.0859-2.4062 2.3359-4.6016 3.7188-6.5703 3.8164-5.4258 8.6602-9.1289 13.965-10.934 5.6328-1.9141 11.613-1.6719 17.352 0.91406 1.5312 0.69141 3.0391 1.5508 4.5078 2.5859 6.9102 4.8594 17.812 19.699 25.66 38.016 1.0859-13.016 1.0859-25.746-1.6641-38.223-0.35547-1.6211-0.92188-4.2656-1.832-8.6016l-0.41797-2.0117c-0.089844-0.38672-0.17578-0.78906-0.25-1.207-0.38281-1.8555-0.73438-3.582-1.043-5.1445l-0.19141-0.98047c-0.99609-5.1016-5.6367-7.8281-10.844-10.887-6.5-3.8203-13.59-7.9883-19.215-16.676l-0.22266-0.34766c-4.2109-6.7109-5.1641-14.281-3.2266-21.379 1.8633-6.8281 6.4102-13.109 13.285-17.562 0.37891-0.24609-0.25781 0.17187 0.44141-0.26563l-0.007813-0.015624c3.8516-2.418 7.6953-3.9766 11.383-4.7227 4.6289-0.9375 9.0039-0.58594 12.898 0.96094 4.0586 1.6133 7.4297 4.4258 9.8906 8.3477 1.625 2.5898 2.832 5.6602 3.5469 9.1797 1.6875 8.3203 0.68359 20.992-0.27734 33.062-0.74609 9.375-1.457 18.352-0.85938 22.801 0.26953 1.332 0.51563 2.5234 0.73828 3.5938 0.32812 1.5625 0.98438 4.582 1.8281 8.4141 5.0586 22.961 2.0508 45.391-1.0742 68.703-1.0508 7.8398-2.1172 15.789-2.8633 23.859l-0.027344 0.30859c-0.16797 1.8477-0.32031 3.7031-0.45312 5.5664 0.9375-1.4922 1.8711-2.8672 2.7695-4.1211 0.39844-1.2578 1.1133-2.4375 2.1406-3.4062 3.4883-3.2734 8.8047-12.336 14.391-21.852 6.4258-10.949 13.172-22.441 19.414-28.859 2.6367-2.7109 5.4336-4.8438 8.2891-6.3906 4.6055-2.4922 9.3906-3.4883 14.02-2.9922 4.8008 0.51953 9.2539 2.6055 13.012 6.2617 1.957 1.9062 3.7031 4.2227 5.1758 6.9453 3.8281 7.0703 4.1797 14.848 1.5664 21.941-2.4844 6.7461-7.6719 12.789-15.082 16.816-9.7617 5.3047-18.242 6.293-26.02 7.1953-6.9609 0.80859-13.172 1.5312-17.852 6.4023l-0.19922 0.20703c-3.3516 3.4727-22.824 23.629-16.352 56.785 0.10156 0.32812 0.20312 0.65625 0.30859 0.98438 3.75 11.75 10.145 22.895 17.355 33.996 21.621-32.371 45.359-64.281 68.227-95.023 21.922-29.469 43.031-57.848 60.652-84.492zm-2.125 31.41c-14.109 20.094-29.695 41.051-45.715 62.586-23.207 31.199-47.332 63.629-69.109 96.387 12.188-10.434 24.324-19.461 35.648-27.883 6.707-4.9883 13.129-9.7656 18.684-14.16 20.027-15.855 35.094-38.887 45.348-62.812 7.9688-18.598 12.988-37.59 15.152-54.113zm-161.84 239.66c-0.80469 1.668-1.5977 3.3359-2.375 5.0039-0.76172 1.8984-1.6094 3.7695-2.5469 5.6094l-0.12109 0.23047c-14.594 32.566-23.832 64.629-24.457 95.293-0.58984 28.832 8.5938 52.562 21.289 73.875 20.617-20.41 35.555-49.953 46.348-77.715-3.2227-1.9336-7.9219-2.0703-13.07-2.2227-7.8164-0.23047-16.34-0.48438-25.449-5.1523-1.2422-0.63672-2.3672-1.3164-3.3711-2.0273-5.293-3.7539-8.5781-8.9805-9.7266-14.914-1.0859-5.6211-0.16797-11.773 2.8867-17.734 0.77734-1.5156 1.6562-2.9766 2.6445-4.3633 2.0117-2.8359 4.2461-5.2656 6.625-7.2695 4.4883-3.7852 9.4375-5.9375 14.418-6.4219 5.2891-0.51562 10.449 0.83203 15.031 4.0859 1.7266 1.2266 3.3828 2.7578 4.9336 4.6016 5.1719 6.1367 9.5781 16.781 13.762 27.082 3.9766-12.113 7.1406-23.098 9.6484-31.809 0.13281-0.46875-0.34766 1.1992 1.8477-6.3086 11.527-39.465-0.92578-67.809-17.145-93.48-14.812 14.641-29.07 32.012-41.172 53.645zm0.58984 193.72c5.9258 8.668 12.242 17.004 18.461 25.219 14.086 18.598 27.719 36.594 36.121 56.953 1.9922 4.8281 4.1602 11.523 6.3281 19.57 1.8828-9.1992 3.4219-18.727 4.4883-28.699 2.3594-22.078 2.2148-42.113 0.37109-63.102-1.8398-20.906-5.3594-42.691-9.7812-68.293-0.035156-0.16016-0.0625-0.32031-0.085937-0.48047l-0.054688-0.33594-0.17969-1.0469c-1.2031-6.4922-3.8359-12.258-6.6328-16.941-11.582 27.891-27.387 56.785-49.031 77.156zm57.895 175.45c-0.12891-1.2539-0.25781-2.5-0.39453-3.75l-1.0195 3.0508c-8.8477 26.5-17.602 52.719-21.852 82.41-0.94141 6.5703-0.16797 10.176 1.5 11.594 0.51953 0.44141 1.2734 0.67969 2.168 0.73438 1.4219 0.089844 3.0664-0.23047 4.7812-0.89453 6.0117-2.3203 11.953-8.1992 13.484-15.641 4.5-21.871 4.1055-50.156 1.332-77.508zm43.562-402.48c1.125-0.69922 2.2734-1.3906 3.4414-2.0938 5.8828-3.5508 12.297-7.4219 17.492-13.883 0.61328-0.76172 1.1328-1.4883 1.5547-2.1719 1.7656-2.8555 2.5156-5.6719 2.2734-8.1172-0.19922-2.0195-1.168-3.8555-2.8828-5.2344-0.35547-0.28516-0.69531-0.53125-1.0195-0.73047-0.75391-0.46484-1.4844-0.83594-2.1953-1.1172-2.2969-0.91406-4.5312-0.95312-6.4922-0.21875-2.1367 0.80078-4.1211 2.5547-5.7227 5.1445-0.60938 0.98438-1.1562 2.0742-1.625 3.2578-2.2031 5.543-3.5859 15.297-4.8203 25.164zm3.7578 156.04c1.0781-0.11328 2.168-0.21875 3.2734-0.32422 6.2812-0.60156 13.129-1.2539 20.223-4.9453 3.9219-2.0391 6.6211-4.9609 7.8594-8.1445 1.1211-2.8867 1.0469-6.0664-0.44531-8.9766-0.66016-1.2891-1.4141-2.3438-2.2305-3.1719-1.0859-1.0938-2.2695-1.7188-3.4688-1.875-1.3906-0.17969-2.9883 0.16797-4.6953 1.0391-1.457 0.74609-2.9766 1.8789-4.5117 3.4062-4.582 4.5469-10.359 13.766-16.008 22.992zm-2.2734-83.098c1.1094 0.11328 2.2266 0.24609 3.3594 0.375 6.0547 0.69922 12.656 1.4648 19.957-0.73047 4.0273-1.2109 7.125-3.5898 8.9375-6.5586 1.7109-2.8047 2.2891-6.1953 1.3984-9.6289-0.45312-1.7383-1.0742-3.1562-1.8281-4.2461-0.74609-1.082-1.6406-1.8008-2.6211-2.1445-1.0586-0.375-2.3594-0.375-3.832 0.003907-1.5977 0.41406-3.3438 1.2539-5.1953 2.5352-5.293 3.6641-12.824 12.062-20.18 20.398zm-78.031 44.5c2.2891 0.066406 4.5195 0.13281 6.6953 0.29688-3.8086-9.3789-7.793-19.105-11.332-23.309-0.61328-0.72656-1.2812-1.3438-1.9961-1.8516-1.3438-0.95312-2.8125-1.3555-4.2812-1.2109-1.7734 0.17188-3.7148 1.0898-5.668 2.7344-1.3008 1.0938-2.6016 2.5391-3.875 4.332-0.58984 0.83203-1.0742 1.6211-1.457 2.3633-1.3711 2.6719-1.8164 5.2617-1.3867 7.4844 0.37109 1.9102 1.4805 3.6289 3.2891 4.9141 0.46094 0.32812 0.91797 0.60938 1.3711 0.83984 5.9023 3.0234 12.547 3.2227 18.637 3.4023zm-31.078-403.18c1.5469 0.91016 3.0625 1.8008 4.5195 2.7227 0.87109-10.965 1.7617-22.406 0.55859-28.324-0.3125-1.5352-0.79688-2.8047-1.4219-3.8047-0.63281-1.0078-1.4023-1.6914-2.2656-2.0352-1.0234-0.40625-2.3438-0.46484-3.8984-0.14844-1.7852 0.36328-3.8047 1.2188-6.0078 2.5977l-0.007812-0.015625-0.023438 0.015625c-0.50781 0.31641 0.39062-0.23828-0.21484 0.15625-3.4922 2.2617-5.7422 5.2461-6.5977 8.375-0.78125 2.8555-0.37891 5.9336 1.3516 8.6914l0.097656 0.15625c3.5977 5.5547 8.9727 8.7148 13.902 11.613zm-40.715 202.84c2.4883 0.019531 4.9102 0.042968 7.2656 0.1875-4.2656-9.6758-8.7109-18.859-12.336-22.961-0.625-0.70703-1.2891-1.2969-1.9883-1.7734-1.3867-0.94922-2.8945-1.3242-4.3945-1.1484-1.832 0.21875-3.7969 1.1914-5.7344 2.9023-1.2656 1.1172-2.5195 2.5586-3.7266 4.3242-0.57812 0.84375-1.0625 1.6758-1.4531 2.4883-1.2891 2.6641-1.6719 5.2109-1.2031 7.3711 0.39844 1.8516 1.5234 3.5117 3.3203 4.7422 0.45703 0.3125 0.94531 0.59766 1.4648 0.84766 6.0195 2.9102 12.68 2.9688 18.785 3.0195zm19.051-128.18c2.6094-1.0625 5.0859-2.0664 7.5781-2.7031-4.6758-8.0039-9.332-13.816-12.586-16.105-0.625-0.44141-1.2578-0.80078-1.8828-1.0859-1.9141-0.86328-3.8672-0.96094-5.6641-0.34766-2.125 0.72266-4.207 2.4102-6.0273 4.9961-0.80469 1.1445-1.5508 2.4609-2.2188 3.9453-0.53125 1.1758-0.90625 2.2773-1.1367 3.293-0.54297 2.3906-0.40234 4.4961 0.34766 6.1328 0.66406 1.4531 1.918 2.6562 3.6914 3.457 0.70312 0.31641 1.4453 0.56641 2.2188 0.74219 6.3867 1.4492 11.344-0.56641 15.676-2.3242zm73.977 38.98c1.0781-0.13672 2.1719-0.26172 3.2773-0.39062 6.3398-0.73828 13.25-1.5391 20.203-5.3203 3.8711-2.1055 6.5195-5.0859 7.7109-8.3164 1.0586-2.875 0.91797-6.0234-0.62891-8.8789-0.6875-1.2695-1.4414-2.293-2.2383-3.0703-1.1133-1.082-2.332-1.6875-3.5742-1.8242-1.4141-0.15234-3.0391 0.24219-4.7695 1.1797-1.457 0.78906-2.9414 1.9375-4.4141 3.4531-4.5195 4.6445-10.105 13.898-15.559 23.172zm-673.23 925.28c-18.145 19.73-35.801 38.93-52.977 56.602 15.832-5.207 33.559-13.684 50.348-24.984 21.586-14.527 41.398-33.633 53.246-56.277 3.2266-6.168 6.7461-13.418 10.422-20.988 6.1562-12.688 12.754-26.277 20.719-40.184-28.105 27.5-55.449 57.23-81.754 85.836zm251.04-195.9c-30.113 6.3594-59.996 21.5-89.371 42.031-1.4727 1.1367-2.9883 2.207-4.5352 3.2148-1.5938 1.1445-3.1836 2.3086-4.7695 3.4844-19.031 15.945-33.457 33.207-45.09 50.508 28.23 11.133 58.387 18.07 95.012-0.62109 1.4102-0.71875 2.0898-1.0508 5.8594-2.9531 8.0977-4.0938 18.309-9.2539 29.473-15.426-10.938-2.1953-22.246-4.543-29.191-8.4492-2.0469-1.1523-3.8594-2.5-5.4414-4.0234-4.043-3.8906-6.3281-8.7148-6.8086-14.023-0.45313-5 0.73047-10.258 3.5938-15.348 1.4961-2.6602 3.4727-5.3047 5.9375-7.8633 1.2656-1.3164 2.5273-2.457 3.7656-3.4219 5.2539-4.0859 11.133-6.125 16.895-6.1055 6.0625 0.019531 11.816 2.2695 16.484 6.7617 0.97656 0.9375 1.8555 1.9102 2.6328 2.9062 6.2461 8.0312 8.0938 16.387 9.7812 24.047 1.1133 5.0469 2.1289 9.6523 4.6328 12.453 25.27-15.789 51.516-35.98 67.719-60.047-23.305-8.4922-48.336-13.082-76.582-7.1211zm119.91 26.637c-9.2344-4.582-18.609-9.2305-28.238-13.438-15.98 25.074-41.422 45.996-66.656 62.574 5.1211 1.8789 11.266 3.3984 17.852 3.3828 0.49219-0.007813 0.98828-0.015625 1.4805-0.03125 0.13672-0.003907 0.27344-0.007813 0.41016-0.003907 19.449-0.32422 36.703-0.74609 52.902-1.8125 0.38672-0.03125 0.77344-0.0625 1.168-0.089843 0.14062-0.007813 0.27734-0.015625 0.41797-0.015625 4.9219-0.33984 9.7461-0.73828 14.512-1.2148 20.82-2.0859 40.504-5.6914 61.891-12.172 9.5898-2.9062 18.652-6.1914 27.32-9.7461-8.2852-0.62891-15.25-1.5117-20.363-2.5664-21.547-4.4531-41.781-14.492-62.691-24.867zm151.23 11c1.2461-0.097657 2.4922-0.19922 3.7383-0.30859 27.414-2.3828 55.273-7.2656 75.863-15.742 7.0312-2.8945 11.699-9.8281 12.855-16.168 0.32812-1.793 0.33203-3.4688-0.027344-4.8711-0.22266-0.875-0.58203-1.5625-1.0859-1.9688-1.7148-1.3867-5.4141-1.4805-11.711 0.67578-28.363 9.7109-52.496 23.207-76.891 36.852zm-385 121.38c0.47656-1.2812 0.94531-2.543 1.4219-3.7852-9.3867 3.0312-18.645 6.1953-23.809 9.4766-1.1797 0.75-2.1523 1.4805-2.918 2.1797-2.2266 2.0391-3.5703 4.3203-3.9648 6.5938-0.35547 2.0508 0.10156 4.2305 1.4297 6.3164 0.47266 0.74609 0.96875 1.4062 1.4805 1.9648 0.23047 0.25391 0.54297 0.54687 0.92188 0.87109 1.6719 1.4258 3.6641 2.0312 5.6953 1.8516 2.4297-0.21484 5.0508-1.4805 7.5273-3.7461 0.56641-0.51953 1.1836-1.168 1.8516-1.9492 5.3555-6.2812 7.9648-13.316 10.359-19.77zm155.72-25.938c-0.10156-1.1016-0.20313-2.1914-0.29297-3.2734-7.9688 7.2305-15.914 14.602-19.582 20.035-1.2148 1.8008-2.0469 3.5078-2.5117 5.082-0.53516 1.8281-0.57812 3.4531-0.14453 4.7812 0.375 1.1484 1.207 2.1953 2.4727 3.0508 0.96875 0.65625 2.1523 1.1992 3.5469 1.6094 3.1289 0.92188 6.2617 0.40234 8.8828-1.2383 2.9102-1.8164 5.2812-5.0078 6.543-9.2109 2.3047-7.668 1.668-14.535 1.0859-20.836zm-81.355 13.254c-0.33984-1.0898-0.67578-2.168-0.99609-3.2344-6.8359 8.8047-13.699 17.797-16.289 23.621-0.89453 2.0156-1.3867 3.8867-1.4961 5.5625-0.10156 1.5508 0.14062 2.8398 0.69922 3.8047 0.52344 0.89844 1.3906 1.6406 2.5859 2.168 1.1719 0.51953 2.6758 0.85938 4.5 0.98047 3.5781 0.23828 6.8164-0.95312 9.2344-3.1445 2.5781-2.332 4.3359-5.8242 4.7734-10.016 0.79297-7.5664-1.1914-13.918-3.0117-19.742zm29.703-81.684c-0.5625-2.0977-1.043-4.2695-1.5352-6.4961-1.3086-5.9258-2.7344-12.387-6.8438-17.672-0.39453-0.50781-0.75-0.91016-1.0703-1.2188-1.6055-1.5469-3.4961-2.3203-5.4219-2.3242-2.2227-0.007813-4.6797 0.92578-7.082 2.793-0.75781 0.58984-1.457 1.2109-2.0781 1.8594-1.4727 1.5312-2.6367 3.082-3.5 4.6133-1.2695 2.2539-1.8164 4.3359-1.6562 6.0977 0.13281 1.4492 0.80078 2.8125 1.9961 3.9609 0.57812 0.55469 1.3086 1.0859 2.1914 1.5859 4.8398 2.7227 15.109 4.8164 25.004 6.8008zm-399.9 42.137c-1.1836-1.2656-2.3477-2.5938-3.5312-3.9492-3.7578-4.293-7.8594-8.9766-13.984-11.473-0.34375-0.14062 0.007813-0.003906-0.18359-0.078125-3.0234-1.1797-6.1172-1-8.7891 0.30469-2.9141 1.4219-5.4219 4.1758-6.9805 7.9961-0.13672 0.33594-0.0625 0.13281-0.11719 0.28125-0.95312 2.4414-1.4219 4.5938-1.4453 6.4141-0.019531 1.5508 0.28906 2.8242 0.89453 3.7734 0.50391 0.79297 1.3125 1.4219 2.3906 1.8438 1.1172 0.4375 2.4648 0.67969 4.0273 0.69922 6.1211 0.078125 17.152-2.9219 27.723-5.8125zm189.66-74.73c-0.58203-2.2812-1.0547-4.6523-1.5391-7.0898-1.1953-6.0078-2.4961-12.559-6.4375-17.875-0.34766-0.46875-0.71484-0.89453-1.1016-1.2773-1.5547-1.5508-3.4062-2.3516-5.3086-2.3984-2.1914-0.054687-4.6172 0.80078-7 2.5664-0.72656 0.53906-1.4531 1.168-2.1719 1.8867-1.4727 1.4805-2.6523 2.9805-3.5352 4.4688-1.3398 2.2539-1.9375 4.3789-1.8125 6.2188 0.10156 1.4883 0.75391 2.8906 1.9375 4.0703 0.5625 0.5625 1.2695 1.0977 2.1133 1.6016 4.6992 2.7891 14.543 5.4453 24.844 7.8281zm-125.11 43.539c0.16016-2.5781 0.6875-5.2031 1.2422-7.9727 0.91797-4.5625 1.9688-9.7891-0.66016-15.82-0.35156-0.80469-0.73438-1.4961-1.1406-2.0781-1.0977-1.5664-2.5195-2.5625-4.0977-2.9531-1.7539-0.43359-3.8398-0.18359-6.0703 0.78516-1.0273 0.44922-2.0508 1.0234-3.0586 1.7266-1.2891 0.90625-2.4453 1.8867-3.4531 2.9297-2.1953 2.2617-3.4609 4.6172-3.7734 6.8359-0.26953 1.9023 0.1875 3.8125 1.3906 5.5273 0.36719 0.52344 0.84375 1.0703 1.4297 1.6406 2.8594 2.7734 9.4453 6.2734 18.188 9.3711zm53.543 60.691c-0.078125-1.0977-0.15625-2.1836-0.22266-3.2617-8.1094 7.1055-16.18 14.336-19.863 19.586-1.2266 1.75-2.0859 3.4336-2.5859 5.0039-0.59375 1.8711-0.67969 3.5391-0.26562 4.9023 0.36328 1.1992 1.1875 2.2891 2.457 3.1758 0.93359 0.65625 2.0859 1.2109 3.4531 1.6484 3.0938 0.98438 6.2109 0.53516 8.8477-1.0469 2.9414-1.7617 5.3711-4.9258 6.7188-9.1367 2.4219-7.5508 1.918-14.5 1.4609-20.875z"/>
</svg>
