<svg width="1200" height="1200" xmlns="http://www.w3.org/2000/svg"><path d="M261.5 1044.6c.4 6.4.9 13.3-1.5 20.9-1.3 4.2-3.8 7.3-6.7 9.1-2.6 1.5-5.7 2-8.8 1-1.4-.4-2.6-.9-3.5-1.6-1.3-.9-2.1-2-2.5-3.2-.4-1.4-.3-3 .3-4.9.5-1.6 1.4-3.2 2.6-5 3.7-5.3 11.8-12.5 19.9-19.6 0 1.1.1 2.2.2 3.3m-53.7-60.9c-8.8-3.1-15.3-6.6-18.2-9.4-.6-.5-1-1.1-1.4-1.6-1.2-1.7-1.7-3.6-1.4-5.5.3-2.2 1.6-4.5 3.8-6.8 1.1-1 2.2-2 3.5-2.9 1-.7 2.1-1.3 3.1-1.7 2.3-1 4.3-1.2 6.1-.8 1.6.4 3 1.4 4.1 3 .4.6.7 1.3 1.1 2.1 2.7 6 1.6 11.2.7 15.8-.5 2.8-1 5.4-1.2 8Zm125.3-43.3c-10.3-2.4-20.1-5-24.8-7.8-.8-.5-1.5-1-2.1-1.6-1.1-1.2-1.8-2.6-1.9-4.1-.1-1.8.5-3.9 1.8-6.2.8-1.5 2-3 3.5-4.5.7-.7 1.5-1.4 2.2-1.9 2.4-1.8 4.8-2.7 7-2.6 1.9 0 3.7.8 5.3 2.4.4.4.8.8 1.1 1.3 3.9 5.3 5.2 11.9 6.4 17.9.4 2.4.9 4.8 1.5 7.1m-189.7 74.7c-10.5 2.9-21.6 5.9-27.7 5.8-1.5 0-2.9-.3-4-.7q-1.65-.6-2.4-1.8c-.6-1-.9-2.2-.9-3.8 0-1.8.4-4 1.4-6.4 0-.2 0 0 .1-.3 1.6-3.8 4.1-6.6 7-8 2.7-1.3 5.8-1.5 8.8-.3.2.1-.1 0 .2.1 6.1 2.5 10.2 7.2 14 11.5 1.2 1.3 2.3 2.6 3.5 3.9m399.9-42c-9.9-2-20.2-4.1-25-6.8-.9-.5-1.6-1-2.2-1.6-1.2-1.2-1.9-2.6-2-4-.1-1.8.4-3.8 1.7-6.1.9-1.5 2-3.1 3.5-4.6.6-.7 1.3-1.3 2.1-1.9 2.4-1.9 4.9-2.8 7.1-2.8 1.9 0 3.8.8 5.4 2.3.3.3.7.7 1.1 1.2 4.1 5.3 5.5 11.8 6.8 17.7.5 2.2.9 4.4 1.5 6.5Zm-29.7 81.8c1.8 5.8 3.8 12.1 3 19.7-.5 4.2-2.2 7.7-4.8 10-2.4 2.1-5.6 3.3-9.2 3.1-1.8-.1-3.3-.5-4.5-1-1.2-.6-2.1-1.3-2.6-2.2-.6-1-.8-2.2-.7-3.8.1-1.7.6-3.6 1.5-5.6 2.6-5.8 9.5-14.8 16.3-23.6.3 1 .7 2.1 1 3.2Zm81.4-13.4c.6 6.3 1.2 13.1-1.1 20.8-1.2 4.2-3.6 7.4-6.5 9.2-2.6 1.6-5.8 2.1-8.9 1.2-1.3-.4-2.5-.9-3.5-1.6-1.3-.9-2.1-2-2.5-3.1-.5-1.3-.4-3 .1-4.8.5-1.6 1.3-3.3 2.5-5.1 3.7-5.4 11.6-12.8 19.6-20l.3 3.3Zm-155.7 26c-2.4 6.5-5 13.5-10.4 19.8-.7.7-1.3 1.4-1.9 1.9-2.4 2.2-5.1 3.5-7.5 3.7-2 .1-4-.5-5.7-1.9-.4-.4-.7-.6-.9-.9-.5-.6-1-1.3-1.5-2-1.3-2.1-1.8-4.2-1.4-6.3.4-2.3 1.8-4.6 4-6.6.7-.7 1.7-1.4 2.9-2.2 5.2-3.3 14.4-6.5 23.8-9.5-.5 1.3-.9 2.5-1.4 3.8Zm387.8-123.1c24.4-13.7 48.5-27.2 76.9-36.9 6.3-2.2 10-2.1 11.7-.7.5.4.9 1.1 1.1 2 .3 1.4.3 3.1 0 4.9-1.2 6.4-5.9 13.3-12.9 16.2-20.6 8.4-48.5 13.3-75.9 15.7-1.2.1-2.5.2-3.7.3Zm-154-9.4c20.9 10.4 41.2 20.4 62.7 24.9 5.1 1.1 12.1 2 20.4 2.6-8.6 3.5-17.7 6.8-27.3 9.7-21.4 6.5-41.1 10.1-61.9 12.2-4.8.5-9.6.9-14.5 1.2h-.4c-.4 0-.8.1-1.2.1-16.2 1.1-33.5 1.5-52.9 1.8h-1.9c-6.6 0-12.8-1.5-17.9-3.4 25.3-16.6 50.7-37.5 66.7-62.6 9.6 4.2 19 8.8 28.2 13.4Zm-119.9-26.5c28.3-6 53.3-1.4 76.6 7.1-16.2 24-42.4 44.2-67.7 60-2.5-2.8-3.5-7.5-4.6-12.5-1.7-7.6-3.6-16-9.8-24-.7-1-1.6-2-2.6-2.9-4.7-4.5-10.4-6.8-16.5-6.8-5.8 0-11.6 2-16.9 6.1-1.3.9-2.5 2.1-3.8 3.4-2.4 2.6-4.4 5.2-5.9 7.9-2.9 5-4.1 10.3-3.6 15.3.5 5.3 2.8 10.1 6.8 14 1.5 1.5 3.4 2.8 5.4 4 7 3.9 18.3 6.2 29.2 8.4-11.2 6.1-21.4 11.3-29.5 15.4-3.8 1.9-4.5 2.3-5.9 3-36.6 18.7-66.8 11.7-95 .6 11.6-17.3 26.1-34.6 45.1-50.5 1.6-1.2 3.2-2.4 4.8-3.5 1.5-1 3-2.1 4.5-3.2 29.4-20.5 59.3-35.6 89.4-42ZM302 1104.1c26.4-28.6 53.7-58.3 81.8-85.8-7.9 13.9-14.5 27.5-20.7 40.2-3.7 7.6-7.2 14.8-10.4 21-11.8 22.7-31.6 41.8-53.2 56.3-16.7 11.3-34.5 19.8-50.3 25 17.2-17.7 34.9-36.9 53-56.6ZM975.4 179c5.5-9.3 11.1-18.6 15.6-23.2 1.5-1.6 2.9-2.7 4.4-3.5q2.7-1.5 4.8-1.2 1.95.15 3.6 1.8c.8.8 1.5 1.8 2.2 3.1 1.5 2.9 1.7 6 .6 8.9-1.2 3.2-3.8 6.2-7.7 8.3-6.9 3.8-13.9 4.6-20.2 5.3-1.1.1-2.2.3-3.3.4Zm-74-39.1c-4.4 1.7-9.3 3.7-15.7 2.3-.8-.1-1.5-.4-2.2-.7-1.8-.8-3-2-3.7-3.5-.7-1.6-.8-3.7-.3-6.1.2-1 .6-2.1 1.1-3.3.6-1.4 1.4-2.8 2.2-3.9 1.8-2.6 3.9-4.3 6-5 1.8-.7 3.8-.6 5.7.3.6.3 1.3.7 1.9 1.1 3.3 2.3 7.9 8.1 12.6 16.1-2.5.6-5 1.6-7.6 2.7m-19 128.1c-6.1 0-12.8-.1-18.8-3-.6-.2-1-.5-1.5-.8-1.8-1.2-2.9-2.8-3.3-4.7-.5-2.2-.1-4.7 1.2-7.4.4-.8.9-1.7 1.5-2.5 1.2-1.7 2.4-3.2 3.7-4.3 1.9-1.7 3.9-2.7 5.7-2.9 1.5-.2 3 .2 4.4 1.1.7.5 1.4 1.1 2 1.8 3.6 4.1 8 13.3 12.3 23-2.4-.2-4.8-.2-7.3-.2Zm40.7-202.5c-4.9-2.9-10.3-6-13.9-11.6l-.1-.2c-1.8-2.8-2.2-5.8-1.4-8.7.9-3.2 3.1-6.1 6.6-8.4.6-.4-.3.1.2-.2 2.2-1.4 4.2-2.2 6-2.6 1.6-.4 2.9-.3 3.9.1.9.3 1.7 1 2.3 2s1.1 2.3 1.4 3.8c1.2 5.9.3 17.3-.6 28.3-1.4-.9-3-1.8-4.5-2.7ZM954 468.4c-6.1-.2-12.7-.4-18.6-3.4-.5-.2-.9-.5-1.4-.8-1.8-1.3-2.9-3-3.3-4.9-.4-2.2 0-4.8 1.4-7.5q.6-1.2 1.5-2.4c1.3-1.8 2.6-3.2 3.9-4.3q3-2.4 5.7-2.7c1.5-.2 3 .2 4.3 1.2.7.6 1.4 1.2 2 1.9 3.5 4.2 7.5 13.9 11.3 23.3-2.2-.2-4.4-.2-6.7-.3Zm78.2-44.3c7.4-8.3 14.9-16.7 20.2-20.4 1.9-1.2 3.6-2.1 5.2-2.5 1.4-.4 2.7-.4 3.8 0 1 .3 1.9 1 2.6 2.1.7 1 1.3 2.5 1.8 4.2.9 3.4.3 6.8-1.4 9.6-1.8 3-4.9 5.4-8.9 6.6-7.3 2.2-13.9 1.4-20 .7-1.2-.2-2.3-.3-3.4-.4Zm2.3 83c5.6-9.2 11.4-18.5 16-23 1.5-1.5 3-2.7 4.5-3.4 1.7-.8 3.3-1.2 4.7-1 1.2.2 2.4.8 3.5 1.9.8.9 1.5 1.9 2.2 3.2 1.4 2.9 1.5 6.1.4 9-1.3 3.1-4 6.1-7.9 8.1-7.1 3.6-13.9 4.3-20.2 4.9l-3.3.3Zm-3.8-155.9c1.2-9.9 2.6-19.7 4.8-25.2.4-1.2 1-2.3 1.6-3.3 1.6-2.5 3.6-4.3 5.7-5.1 2-.8 4.2-.7 6.5.2.7.3 1.4.6 2.2 1.1.3.2.6.4 1 .7 1.7 1.3 2.7 3.2 2.9 5.2.2 2.4-.5 5.2-2.3 8.1-.5.7-1 1.4-1.6 2.2-5.2 6.5-11.6 10.3-17.5 13.9-1.1.7-2.3 1.4-3.4 2.1ZM987 753.6c2.8 27.3 3.2 55.6-1.3 77.5-1.5 7.4-7.5 13.3-13.5 15.6-1.7.7-3.4 1-4.8.9-.9 0-1.7-.3-2.2-.7-1.7-1.4-2.4-5-1.5-11.6 4.3-29.7 13.1-55.9 21.9-82.4l1-3.1c.1 1.3.3 2.5.4 3.8m-57.9-175.2c21.6-20.4 37.4-49.3 49-77.2 2.8 4.6 5.4 10.4 6.6 16.9l.2 1 .1.3c0 .2.1.3.1.5 4.4 25.6 8 47.4 9.8 68.3 1.8 21 2 41-.4 63.1-1.1 10-2.6 19.5-4.5 28.7-2.1-8.1-4.3-14.8-6.3-19.6-8.4-20.4-22-38.4-36.1-57-6.3-8.2-12.6-16.5-18.5-25.2Zm-.8-193.9c12.1-21.6 26.4-39 41.2-53.6 16.2 25.7 28.6 54 17.1 93.5-2.1 7.5-1.7 5.8-1.8 6.3-2.5 8.7-5.6 19.7-9.6 31.8-4.2-10.3-8.6-21-13.8-27.1-1.5-1.8-3.2-3.4-4.9-4.6-4.6-3.3-9.7-4.6-15-4.1-5 .5-9.9 2.6-14.4 6.4-2.4 2-4.6 4.5-6.6 7.3-.9 1.4-1.8 2.9-2.6 4.4-3.1 5.9-4 12.1-2.9 17.7 1.1 5.9 4.4 11.1 9.7 14.9 1 .7 2.2 1.4 3.4 2 9.1 4.7 17.6 5 25.4 5.2 5.2.1 9.9.3 13.1 2.2-10.7 27.7-25.7 57.3-46.3 77.7-12.7-21.3-21.9-45.1-21.3-73.9.7-30.7 9.9-62.7 24.5-95.3l.1-.2c.9-1.8 1.7-3.7 2.5-5.6.8-1.7 1.6-3.3 2.4-5Zm162-239.7c-2.2 16.5-7.2 35.5-15.2 54.1-10.2 23.9-25.3 46.9-45.3 62.8-5.6 4.4-12 9.2-18.7 14.2-11.3 8.4-23.4 17.5-35.6 27.9 21.8-32.8 45.9-65.2 69.1-96.4 16-21.5 31.6-42.5 45.7-62.6m1.9-31.1c-17.7 26.7-38.8 55-60.7 84.5-22.8 30.7-46.6 62.6-68.2 95-7.3-11.1-13.6-22.2-17.4-34-.1-.3-.2-.7-.3-1-6.4-33.2 13-53.3 16.4-56.8l.2-.2c4.7-4.9 10.9-5.6 17.9-6.4 7.8-.9 16.2-1.9 26-7.2 7.4-4 12.6-10.1 15.1-16.8 2.6-7.1 2.2-14.8-1.6-21.9-1.5-2.7-3.2-5-5.2-6.9-3.7-3.7-8.2-5.8-13-6.3-4.6-.5-9.4.5-14 3-2.9 1.6-5.7 3.7-8.3 6.4-6.2 6.5-13 18-19.4 28.9-5.6 9.6-10.9 18.6-14.4 21.9-1 1-1.7 2.1-2.1 3.4-.9 1.2-1.9 2.6-2.8 4.1.2-1.9.3-3.8.5-5.6v-.3c.8-8.1 1.8-16.1 2.9-23.9 3.2-23.3 6.2-45.7 1.1-68.7-.8-3.8-1.5-6.8-1.8-8.4-.2-1.1-.4-2.3-.7-3.6-.6-4.4.2-13.4.9-22.8 1-12.1 2-24.8.3-33.1-.7-3.5-1.9-6.6-3.5-9.2-2.5-3.9-5.8-6.7-9.9-8.3-3.9-1.6-8.3-1.9-12.9-1-3.7.7-7.5 2.3-11.4 4.7-.7.5 0 .1-.4.3-6.9 4.5-11.4 10.8-13.3 17.6-2 7.1-1 14.7 3.2 21.4l.2.3c5.6 8.7 12.7 12.9 19.2 16.7 5.2 3.1 9.8 5.8 10.8 10.9l.2 1c.3 1.5.6 3.2 1 5.1l.3 1.2.4 2c.9 4.3 1.4 7 1.8 8.6 2.8 12.5 2.8 25.2 1.7 38.2-7.9-18.3-18.8-33.1-25.7-38-1.5-1-3-1.9-4.5-2.6-5.8-2.6-11.8-2.8-17.4-.9-5.3 1.8-10.2 5.5-14 10.9-1.4 2-2.6 4.2-3.7 6.6-.9 2.1-1.6 4.3-2.1 6.4-1.3 5.9-.8 11.5 1.4 16.3 2.3 5 6.2 9 11.6 11.4 1.6.7 3.4 1.3 5.3 1.7 11.3 2.5 18.7-.5 25.2-3.1 3.7-1.5 6.8-2.8 9.7-.7.1.1.2.1.3.2l.6 1.5c5 12.6 8.3 26.9 7.4 40.2-1.9 20.6-1.9 42.1 5.1 65.3.1.4.2.9.4 1.3.1.4.2.7.3 1.1 5 15.8 13.7 29.8 23 43.7-8 12.4-15.6 24.9-22.7 37.4-.1-1.1-.2-2.1-.3-3.2-2.3-18.9-8.5-37-13.8-49.2-.2-.7-.4-1.4-.8-2.1-1.9-3.6-4.4-9.4-7.2-16-6-14.2-13.3-31.5-20.2-39.3-1.5-1.8-3.2-3.2-4.9-4.4-4.7-3.2-10-4.4-15.3-3.8-5 .6-9.9 2.9-14.4 6.8-2.3 2.1-4.5 4.5-6.4 7.3-1 1.5-1.9 3.1-2.6 4.6-2.9 5.9-3.7 12-2.5 17.6 1.2 5.8 4.6 11 9.9 14.6 1.1.7 2.2 1.4 3.5 2 9.2 4.5 17.8 4.5 25.6 4.6 6.4.1 12.2.1 15.3 3.7.2.3.6.9 1.1 1.7 1.4 3.3 2.7 6.1 3.8 8.2l.6.9c4.4 10.3 10.1 26.8 12.2 44.8 1.6 13.9 1 28.3-4.2 40.8-.4.9-.9 1.9-1.3 2.9l-.3.6c-.1.3-.3.7-.4 1-15.4 34.3-25.1 68.4-25.8 101.4-1.1 53 26 88.8 51.7 122.7 13.5 17.8 26.5 35.1 34.1 53.4 3.9 9.4 8.5 26.8 12.4 47.6-3.5 11.5-7.2 22.7-10.9 33.8-9.1 27.2-18.1 54.2-22.5 85.2-1.8 12.8 1.3 21.2 7 26 3.3 2.8 7.2 4.2 11.5 4.5 3.7.2 7.6-.5 11.5-2 10.4-4 20.7-14.2 23.4-27.3 4.9-23.7 4.5-53.6 1.6-82.3-1.3-12.8-3.1-25.4-5.2-37.1 5.6-19.2 10.3-39.5 12.7-62.1 2.5-23.4 2.3-44.3.4-66.2-.5-5.2-1-10.5-1.7-15.9-1-9.1-.1-16.9 1.8-23.3 2.8-9.9 7.6-16.2 10.2-18.8 4.8-4.7 11-5.3 17.9-6 7.8-.7 16.4-1.5 26.1-6.6 7.5-3.9 12.8-9.9 15.4-16.6 2.8-7.1 2.6-14.8-1.1-22-1.4-2.9-3.2-5.3-5.1-7.2-3.7-3.6-8-5.8-12.8-6.4-4.5-.6-9.3.3-13.9 2.7-2.9 1.5-5.8 3.6-8.5 6.3-6.3 6.3-13.3 17.7-19.9 28.5-5.7 9.4-11.2 18.5-14.7 21.6-1 .8-1.7 1.8-2.1 2.9-.5-2.9-1-5.9-1.5-8.9v-.1c-.1-.8-.2-1.6-.4-2.4-2.4-14.1-3.6-25.6-3.8-35.6 1.1-11.8 4.6-20 8.5-25.7s8.2-9 10.7-10.7c5.3-3.7 11.2-3.1 17.8-2.3 7.6.9 15.9 1.8 26.3-1.3 7.9-2.4 14.2-7.4 18-13.6 3.9-6.4 5.2-14.1 3.2-21.9-.9-3.6-2.3-6.7-4.1-9.3-2.7-3.9-6.3-6.6-10.4-8.1-4-1.5-8.5-1.6-13.1-.4-3.4.8-6.9 2.4-10.3 4.8-7.4 5.1-16.2 15.1-24.6 24.6-4.5 5.2-9 10.3-12.6 13.9 2.5-6.5 5.4-13.4 8.7-21.3 1.8-4.4 3.8-9 5.4-12.9 1.3-3.1 2.5-6.1 3.6-8.8l.7-1.7c.3-.7.5-1.4.8-2.1.8-2 1.6-3.9 2.3-5.8 2.5-6.3 8.3-9.8 14.8-13.7 7-4.3 14.7-8.9 21.7-17.6 1-1.2 1.9-2.5 2.7-3.8 3.7-6 5.2-12.2 4.6-18.1-.7-6.3-3.6-11.9-8.8-16.1-.7-.7-1.6-1.3-2.6-1.9-1.5-1-3.1-1.8-4.7-2.4-6.1-2.4-12.3-2.4-17.9-.3-5.4 2-10.2 6-13.7 11.7-1.1 1.8-2.1 3.7-2.9 5.8-3.4 8.4-4.9 21.1-6.4 33.1-1.2 9.6-2.3 18.8-4 23.5l-.4 1.1c-.1.2-.1.4-.2.6l-.7 1.7c-.6 1.6-1.2 3-1.8 4.4-2.2-25.1-13.1-45.6-25.5-64.8 13.3-11.8 26.7-21.8 39.1-31 6.6-4.9 12.9-9.6 19.1-14.5 22.4-17.7 39-43 50.2-69.1 13.6-31.9 19.2-65.3 17.2-87.7-.1-2.4-1.4-4.8-3.6-6.3-3.7-2.4-8.7-1.4-11.1 2.3ZM224.8 1182c22.4-2.2 54.2-13.9 83-33.3 23.6-15.9 45.3-37 58.5-62.2 3.8-7.1 7.2-14.1 10.7-21.4 6.8-13.9 14.1-28.9 23.2-44.2 21.2 8.6 43.3 15.5 68.4 13-1.5 1-2.8 1.8-4 2.6l-1.6 1.1c-.1.1-.2.1-.3.2l-1.1.7c-4.3 2.5-13.1 5.3-22.3 8.3-11.6 3.7-23.8 7.7-31.3 12.4q-2.7 1.65-5.1 3.9c-5 4.6-8 10-9 15.7-1 6 .2 12 3.7 17.6.8 1.4 1.9 2.8 3.2 4.2.8.8 1.6 1.6 2.3 2.2 5 4.3 11.1 6.2 17.4 5.6 5.9-.5 11.8-3.2 16.9-7.9 1.2-1.1 2.2-2.2 3.2-3.3 7.2-8.6 10.4-16.9 13.2-24.6 2.7-7.2 5-13.5 10.7-17.1 2.1-1.3 3.8-2.4 5.2-3.3.7-.4 1.3-.8 1.9-1.2l1.6-1c3.3-2.2 5.9-3.8 8-5.2 2.9-1.9 7.4-4.9 11.6-7.7 7.1-4.7 13.4-8.8 19.3-12.5-2.9 4.3-7 9.6-11.2 15-7.8 10-15.9 20.5-19.6 28.8-1.7 3.8-2.7 7.5-2.9 11-.3 4.7.6 9.1 2.8 12.8 2.2 3.8 5.6 6.7 10 8.7 2.9 1.3 6.2 2.2 9.9 2.4 8 .5 15.3-2.3 20.9-7.3 5.5-4.9 9.1-12 10-20.2 1.2-10.8-1.3-18.8-3.6-26.1-2-6.3-3.8-12-1.1-17.9 1.2-2.8 3.6-7.6 8.5-12.5 4.8-4.9 12.2-9.9 23.6-13.2 9.9-1.7 21.4-2.6 35.7-2.9h2.5c3.1-.1 6.1-.1 9.1-.2-1 .7-1.8 1.5-2.5 2.6-2.5 4-10.3 11.1-18.5 18.5-9.4 8.6-19.3 17.5-24.3 24.9-2.1 3.1-3.7 6.3-4.6 9.5-1.4 5-1.4 9.8 0 14.2 1.5 4.6 4.4 8.5 8.7 11.4 2.3 1.6 4.9 2.8 8 3.7 7.7 2.3 15.4 1 21.8-3 6.1-3.8 11-10.1 13.4-18.2 3.1-10.5 2.3-19 1.6-26.8-.7-6.9-1.2-13.1 2.6-18.7 2.1-3 7.4-8.9 16.6-13.6 6.1-3.1 13.7-5.5 23-6.2h.4c5.1-.4 10.1-.8 15-1.3 22-2.2 42.7-5.9 65-12.7 21.7-6.5 40.8-14.9 58.6-24 11.9-.1 24.6-.7 37.4-1.8 28.8-2.5 58.3-7.7 80.6-16.9 12.3-5 20.5-17 22.5-28 .8-4.1.7-8.1-.2-11.7-1.1-4.2-3.2-7.8-6.6-10.5-5.7-4.6-14.6-6.2-26.8-2-29.6 10.1-54.4 24-79.5 38-10.2 5.7-20.5 11.5-31.2 17-21.2.1-39.1-1.2-49.1-3.3-19.4-4.1-38.8-13.7-58.8-23.6-38.1-18.8-78.4-38.8-130.2-27.9-32.4 6.8-64.1 22.9-95.1 44.5-.2.1-.4.2-.6.4-1.2.8-2.4 1.6-3.6 2.5-11.2 7.3-25.1 10.5-38.8 11.4-18.1 1.3-35.4-1.2-46.4-3.6-.3-.2-.7-.3-1-.4-2.5-.8-5.4-1.5-8.8-2.3-.9-.3-1.5-.5-1.8-.7-4-2.4-5.1-8.1-6.4-14.4-1.5-7.7-3.2-16-9.3-24.3-.9-1.1-1.8-2.2-2.7-3.1-4.6-4.5-10.2-6.9-16.2-7-5.7-.1-11.6 1.8-16.9 5.7-1.4 1-2.7 2.1-4 3.4-2.5 2.5-4.5 5-6 7.6-3 5.1-4.3 10.4-4 15.4.3 5.4 2.6 10.3 6.6 14.3 1.5 1.5 3.2 2.8 5.2 4 8.9 5.2 27.3 9.2 42.4 12.5 7.2 1.5 13.6 2.9 17.1 4q1.05.3 2.1.3c12.9 2.9 31.9 5.7 51 4.4 1-.1 2.1-.2 3.2-.3-10.9 9.3-21.8 19.1-32.5 29.3-15.5-6.6-30.8-12.5-47.2-14.5-25.1-3-47 1-67.5 6.9h-.1c-12.9 3.4-27.6 2.7-40.9.2l-1.5-.3-.3-.3c-2.5-2.4-1.9-5.7-1.1-9.6 1.3-6.8 2.9-14.7-1.7-25.3q-1.2-2.55-2.7-4.8c-3.4-4.8-8-8-13.3-9.3-5.2-1.2-10.8-.7-16.3 1.7-1.9.9-3.9 1.9-5.8 3.3-2.2 1.6-4.2 3.2-5.8 4.9-4.6 4.8-7.3 10.2-8.1 15.8-.9 5.8.5 11.6 4.1 16.8 1 1.5 2.1 2.8 3.4 4 6.1 5.9 22.7 13.8 42.2 18.1-12.6 3.5-25.1 5.9-37.9 5.5-2.7-.1-5.6-.1-8.8-.2h-9.5c-5.2 0-8.7-4-12.7-8.6-5-5.7-10.4-11.9-20-15.8-.2 0 0 0-.4-.1-7.4-2.9-15-2.4-21.6.8-6.4 3.1-11.7 8.8-14.8 16.4l-.2.5c-1.6 4.2-2.5 8.2-2.5 12-.1 4.7 1.1 9 3.3 12.5 2.4 3.7 5.8 6.5 10.1 8.2 2.9 1.1 6.1 1.8 9.7 1.8 8.4.1 20.7-3.3 32.4-6.5 9.4-2.6 18.4-5 22.8-5.1h3.2c2.8 0 5.7.1 8.6.2 23.6.6 45-6.5 67.3-13.9 7.4-2.5 15-5 22.7-7.2h.2c.2 0 .3 0 .5-.1 1.8-.5 3.5-.9 5.3-1.4-1.3 1.2-2.4 2.4-3.5 3.5-1.2.7-2.2 1.6-3 2.8-2.6 4-10.5 10.9-18.8 18.2-9.5 8.4-19.5 17.1-24.7 24.5-2.1 3.1-3.7 6.2-4.7 9.3-1.6 5-1.7 9.8-.3 14.3 1.4 4.6 4.3 8.6 8.6 11.6 2.2 1.6 4.8 2.9 7.8 3.8 7.6 2.5 15.3 1.4 21.8-2.5 6.2-3.7 11.1-9.9 13.7-17.9 3.4-10.6 2.8-19.1 2.2-26.9-.5-7-1-13.2 2.9-18.7.1-.1.1-.2.2-.3 2.8-4 18.8-26.7 52.3-26.7.5.1 1 .1 1.5.2 12.3 1.5 24.4 5.7 36.6 10.7-27.7 27.3-54.7 56.6-80.6 84.8-25 27.2-49 53.3-71.7 75.4-3.2 3.1-3.3 8.1-.2 11.3 1.9 1.9 4.5 2.6 6.9 2.3Z"/></svg>